<?xml version="1.0" encoding="UTF-8"?>
<svg id="Layer_2" data-name="Layer 2" xmlns="http://www.w3.org/2000/svg" viewBox="0 0 84.03 41.62">
  <defs>
    <style>
      .cls-1 {
        fill: currentColor;
      }
    </style>
  </defs>
  <g id="Layer_1-2" data-name="Layer 1">
    <g>
      <path class="cls-1" d="M24.68,4.73c-3.89-3.65-11.71-7.65-15.32-1.66-2.22,4.6-1.35,9.9-.95,14.8.72,6.12,1.38,11.75,2,15.67.31,1.86-.22,3.9.49,5.65,1.53,4,7.71,2.73,7.66-1.54-.01-6.24-1.05-8.93-1.34-13.23-.05-.62-.36-2.84-.49-3.81-.44-4.05-1-8.14-.71-12.22.75.37,1.89,1.1,2.06,1.18.71.61,1.35,1.34,2.24,1.64,3.92,1.81,7.44-3.48,4.37-6.48Z"/>
      <path class="cls-1" d="M25.21,17.71c-1.77-.99-3.95-.42-5.84-.06-2.98.96-5.83,2.32-8.62,3.73-2.33,1.18-4.69,2.29-6.89,3.68-1,.69-2.29,1.12-2.99,2.16-2.75,3.34,1.47,8.09,5.16,5.88,3.43-2.2,7.09-3.99,10.73-5.81,3.64-1.55,3.65-1.92,6.42-2.13,4.03.02,5.49-5.42,2.02-7.45Z"/>
      <path class="cls-1" d="M39.13,31.63c-.31-1.49-.18-4.85-1.93-7.49.35-3.36-4.14-5.87-6.82-3.13-2.84,2.49-7.66,9.05-5.61,12.87,1.08,1.76,3.33,2.49,5.29,2.02.69-.19,1.28-.55,1.82-.98.36.77.87,1.57,1.64,2.39,1.77,1.86,5.02,1.4,6.28-.81.92-1.53.61-3.64-.67-4.87Z"/>
      <path class="cls-1" d="M54.19,29.38c-.31-.25-.61-.44-.89-.6.72-2.66-1.71-5.87-4.92-4.95-3.23,1.08-5.22,4.6-5.61,7.84-.2,3.87,3.24,6.22,6.87,5.37,1.7-.44,3.76-.96,4.86-2.41,1.32-1.49,1.04-3.88-.31-5.25Z"/>
      <path class="cls-1" d="M58.67,32.06c-.19-.56-.32-1.13-.41-1.71-.05-.8-.26-3.65-.31-5.97-.1-2.69-.18-5.37-.27-8.06-.18-1.6.19-3.36-.46-4.86-1.53-4.01-7.71-2.73-7.66,1.54.18,4.83.3,9.66.52,14.48.12,3.06.32,6.25,1.87,8.97,3.01,4.68,9.69.25,6.72-4.4Z"/>
      <path class="cls-1" d="M80.02,24.61c-.97-.03-1.81.4-2.62.89-.61.34-1.26.61-1.9.89-.05.02-.1.04-.16.07,1.75-1.42,3.49-2.88,4.7-4.8,4.5-8.25-3.16-16.07-10.47-8.72-2.61,2.95-4.12,6.9-4.47,10.87-1.28.63-2.47,1.34-2.83,2.87-.88,2.93,2,5.59,4.73,4.98,1.84,2.17,4.71,3.46,7.6,3.27,1.87-.11,3.5-1.08,5.21-1.75,1.67-.7,3.6-1.58,4.07-3.5.74-2.47-1.3-5.09-3.86-5.06Z"/>
    </g>
  </g>
</svg>